<svg xmlns="http://www.w3.org/2000/svg" xmlns:xlink="http://www.w3.org/1999/xlink" width="96" zoomAndPan="magnify" viewBox="0 0 72 72" height="96" preserveAspectRatio="xMidYMid meet" version="1.0"><path fill="#ffffff" d="M 70.238281 36 C 70.238281 54.910156 54.910156 70.238281 36 70.238281 C 17.089844 70.238281 1.761719 54.910156 1.761719 36 C 1.761719 17.089844 17.089844 1.761719 36 1.761719 C 54.910156 1.761719 70.238281 17.089844 70.238281 36 " fill-opacity="1" fill-rule="nonzero"/><path fill="#13252f" d="M 36 3.523438 C 27.324219 3.523438 19.171875 6.902344 13.035156 13.035156 C 6.902344 19.171875 3.523438 27.324219 3.523438 36 C 3.523438 44.675781 6.902344 52.828125 13.035156 58.964844 C 19.171875 65.097656 27.324219 68.476562 36 68.476562 C 44.675781 68.476562 52.828125 65.097656 58.964844 58.964844 C 65.097656 52.828125 68.476562 44.675781 68.476562 36 C 68.476562 27.324219 65.097656 19.171875 58.964844 13.035156 C 52.828125 6.902344 44.675781 3.523438 36 3.523438 Z M 36 72 C 31.140625 72 26.425781 71.046875 21.988281 69.171875 C 17.699219 67.355469 13.847656 64.761719 10.542969 61.457031 C 7.238281 58.148438 4.644531 54.300781 2.828125 50.011719 C 0.953125 45.574219 0 40.859375 0 36 C 0 31.140625 0.953125 26.425781 2.828125 21.988281 C 4.644531 17.699219 7.238281 13.851562 10.542969 10.542969 C 13.847656 7.238281 17.699219 4.644531 21.988281 2.828125 C 26.425781 0.953125 31.140625 0 36 0 C 40.859375 0 45.574219 0.953125 50.011719 2.828125 C 54.300781 4.644531 58.148438 7.238281 61.457031 10.542969 C 64.761719 13.851562 67.355469 17.699219 69.171875 21.988281 C 71.046875 26.425781 72 31.140625 72 36 C 72 40.859375 71.046875 45.574219 69.171875 50.011719 C 67.355469 54.300781 64.761719 58.148438 61.457031 61.457031 C 58.148438 64.761719 54.300781 67.355469 50.011719 69.171875 C 45.574219 71.046875 40.859375 72 36 72 " fill-opacity="1" fill-rule="nonzero"/><path fill="#13252f" d="M 54.183594 37.761719 L 17.816406 37.761719 C 16.839844 37.761719 16.050781 36.972656 16.050781 36 C 16.050781 35.027344 16.839844 34.238281 17.816406 34.238281 L 54.183594 34.238281 C 55.160156 34.238281 55.949219 35.027344 55.949219 36 C 55.949219 36.972656 55.160156 37.761719 54.183594 37.761719 " fill-opacity="1" fill-rule="nonzero"/></svg>