<svg xmlns="http://www.w3.org/2000/svg" xmlns:xlink="http://www.w3.org/1999/xlink" width="794" zoomAndPan="magnify" viewBox="0 0 594.95996 842.24997" height="1123" preserveAspectRatio="xMidYMid meet" version="1.0"><defs><clipPath id="id1"><path d="M 158.890625 290.902344 L 424.679688 290.902344 L 424.679688 556.691406 L 158.890625 556.691406 Z M 158.890625 290.902344 " clip-rule="nonzero"/></clipPath></defs><g clip-path="url(#id1)"><path fill="#14252f" d="M 291.785156 290.902344 C 218.507812 290.902344 158.890625 350.519531 158.890625 423.796875 C 158.890625 497.074219 218.507812 556.691406 291.785156 556.691406 C 365.0625 556.691406 424.679688 497.074219 424.679688 423.796875 C 424.679688 350.519531 365.0625 290.902344 291.785156 290.902344 Z M 291.785156 538.972656 C 228.273438 538.972656 176.609375 487.304688 176.609375 423.796875 C 176.609375 360.285156 228.273438 308.621094 291.785156 308.621094 C 355.296875 308.621094 406.960938 360.285156 406.960938 423.796875 C 406.960938 487.304688 355.296875 538.972656 291.785156 538.972656 Z M 291.785156 538.972656 " fill-opacity="1" fill-rule="nonzero"/></g><path fill="#14252f" d="M 338.136719 414.9375 L 300.644531 414.9375 L 300.644531 377.441406 C 300.644531 372.550781 296.679688 368.582031 291.785156 368.582031 C 286.890625 368.582031 282.925781 372.550781 282.925781 377.441406 L 282.925781 414.9375 L 245.433594 414.9375 C 240.539062 414.9375 236.574219 418.902344 236.574219 423.796875 C 236.574219 428.6875 240.539062 432.65625 245.433594 432.65625 L 282.925781 432.65625 L 282.925781 470.148438 C 282.925781 475.042969 286.890625 479.007812 291.785156 479.007812 C 296.679688 479.007812 300.644531 475.042969 300.644531 470.148438 L 300.644531 432.65625 L 338.136719 432.65625 C 343.03125 432.65625 346.996094 428.6875 346.996094 423.796875 C 346.996094 418.902344 343.03125 414.9375 338.136719 414.9375 Z M 338.136719 414.9375 " fill-opacity="1" fill-rule="nonzero"/></svg>