<svg xmlns="http://www.w3.org/2000/svg" xmlns:xlink="http://www.w3.org/1999/xlink" width="794" zoomAndPan="magnify" viewBox="0 0 594.95996 842.24997" height="1123" preserveAspectRatio="xMidYMid meet" version="1.0"><defs><clipPath id="id1"><path d="M 164.597656 287.445312 L 430.386719 287.445312 L 430.386719 553.238281 L 164.597656 553.238281 Z M 164.597656 287.445312 " clip-rule="nonzero"/></clipPath></defs><path fill="#ffffff" d="M 423.882812 420.339844 C 423.882812 490.144531 367.296875 546.730469 297.492188 546.730469 C 227.6875 546.730469 171.101562 490.144531 171.101562 420.339844 C 171.101562 350.539062 227.6875 293.953125 297.492188 293.953125 C 367.296875 293.953125 423.882812 350.539062 423.882812 420.339844 " fill-opacity="1" fill-rule="nonzero"/><g clip-path="url(#id1)"><path fill="#14252f" d="M 297.492188 300.457031 C 265.46875 300.457031 235.363281 312.925781 212.722656 335.570312 C 190.078125 358.214844 177.609375 388.320312 177.609375 420.339844 C 177.609375 452.363281 190.078125 482.46875 212.722656 505.113281 C 235.363281 527.753906 265.46875 540.226562 297.492188 540.226562 C 329.515625 540.226562 359.621094 527.753906 382.261719 505.113281 C 404.90625 482.46875 417.375 452.363281 417.375 420.339844 C 417.375 388.320312 404.90625 358.214844 382.261719 335.570312 C 359.621094 312.925781 329.515625 300.457031 297.492188 300.457031 Z M 297.492188 553.238281 C 279.554688 553.238281 262.148438 549.722656 245.761719 542.789062 C 229.9375 536.097656 215.722656 526.515625 203.519531 514.3125 C 191.320312 502.109375 181.738281 487.898438 175.042969 472.074219 C 168.113281 455.683594 164.597656 438.277344 164.597656 420.339844 C 164.597656 402.402344 168.113281 385 175.042969 368.609375 C 181.738281 352.785156 191.320312 338.574219 203.519531 326.371094 C 215.722656 314.167969 229.9375 304.585938 245.761719 297.890625 C 262.148438 290.960938 279.554688 287.445312 297.492188 287.445312 C 315.429688 287.445312 332.835938 290.960938 349.222656 297.890625 C 365.046875 304.585938 379.261719 314.167969 391.464844 326.371094 C 403.664062 338.574219 413.246094 352.785156 419.941406 368.609375 C 426.871094 385 430.386719 402.402344 430.386719 420.339844 C 430.386719 438.277344 426.871094 455.683594 419.941406 472.074219 C 413.246094 487.898438 403.664062 502.109375 391.464844 514.3125 C 379.261719 526.515625 365.046875 536.097656 349.222656 542.789062 C 332.835938 549.722656 315.429688 553.238281 297.492188 553.238281 " fill-opacity="1" fill-rule="nonzero"/></g><path fill="#14252f" d="M 364.625 426.847656 L 230.359375 426.847656 C 226.765625 426.847656 223.855469 423.933594 223.855469 420.339844 C 223.855469 416.75 226.765625 413.835938 230.359375 413.835938 L 364.625 413.835938 C 368.21875 413.835938 371.128906 416.75 371.128906 420.339844 C 371.128906 423.933594 368.21875 426.847656 364.625 426.847656 " fill-opacity="1" fill-rule="nonzero"/></svg>