<svg xmlns="http://www.w3.org/2000/svg" xmlns:xlink="http://www.w3.org/1999/xlink" width="794" zoomAndPan="magnify" viewBox="0 0 594.95996 842.24997" height="1123" preserveAspectRatio="xMidYMid meet" version="1.0"><defs><clipPath id="id1"><path d="M 164.597656 287.445312 L 430.386719 287.445312 L 430.386719 553.238281 L 164.597656 553.238281 Z M 164.597656 287.445312 " clip-rule="nonzero"/></clipPath></defs><g clip-path="url(#id1)"><path fill="#13252f" d="M 297.492188 287.445312 C 224.265625 287.445312 164.597656 347.117188 164.597656 420.339844 C 164.597656 493.566406 224.265625 553.238281 297.492188 553.238281 C 370.71875 553.238281 430.386719 493.566406 430.386719 420.339844 C 430.386719 347.117188 370.71875 287.445312 297.492188 287.445312 Z M 297.492188 534.230469 C 234.632812 534.230469 183.601562 483.199219 183.601562 420.339844 C 183.601562 357.480469 234.632812 306.449219 297.492188 306.449219 C 360.351562 306.449219 411.382812 357.480469 411.382812 420.339844 C 411.382812 483.199219 360.351562 534.230469 297.492188 534.230469 Z M 297.492188 534.230469 " fill-opacity="1" fill-rule="nonzero"/></g><path fill="#13252f" d="M 263.738281 437.75 C 259.351562 434.828125 258.15625 428.980469 261.078125 424.59375 C 264.003906 420.207031 269.851562 419.011719 274.234375 421.9375 L 287.921875 431.105469 L 287.921875 363.328125 C 287.921875 358.148438 292.175781 353.894531 297.359375 353.894531 C 302.542969 353.894531 306.792969 358.148438 306.792969 363.328125 L 306.792969 430.972656 L 320.484375 421.804688 C 324.867188 418.878906 330.714844 420.074219 333.640625 424.460938 C 336.5625 428.847656 335.367188 434.695312 330.980469 437.617188 L 302.808594 456.753906 C 302.675781 456.886719 302.542969 456.886719 302.410156 456.886719 C 302.277344 457.019531 302.144531 457.152344 302.011719 457.152344 C 301.613281 457.417969 301.214844 457.417969 300.816406 457.683594 C 300.546875 457.816406 300.28125 457.949219 300.015625 457.949219 C 299.21875 458.214844 298.421875 458.347656 297.625 458.347656 C 296.828125 458.347656 295.898438 458.214844 295.101562 457.949219 C 294.835938 457.816406 294.570312 457.816406 294.304688 457.683594 C 293.769531 457.417969 293.238281 457.285156 292.707031 456.886719 C 292.574219 456.753906 292.441406 456.753906 292.308594 456.753906 Z M 263.738281 437.75 " fill-opacity="1" fill-rule="nonzero"/><path fill="#13252f" d="M 354.503906 477.351562 C 354.503906 482.535156 350.25 486.789062 345.070312 486.789062 L 250.046875 486.789062 C 244.867188 486.789062 240.613281 482.535156 240.613281 477.351562 C 240.613281 472.171875 244.867188 467.917969 250.046875 467.917969 L 344.9375 467.917969 C 350.25 467.785156 354.503906 472.039062 354.503906 477.351562 Z M 354.503906 477.351562 " fill-opacity="1" fill-rule="nonzero"/></svg>