<svg xmlns="http://www.w3.org/2000/svg" xmlns:xlink="http://www.w3.org/1999/xlink" width="96" zoomAndPan="magnify" viewBox="0 0 72 72" height="96" preserveAspectRatio="xMidYMid meet" version="1.0"><path fill="#14252f" d="M 36 0 C 16.148438 0 0 16.148438 0 36 C 0 55.851562 16.148438 72 36 72 C 55.851562 72 72 55.851562 72 36 C 72 16.148438 55.851562 0 36 0 Z M 36 67.199219 C 18.796875 67.199219 4.800781 53.203125 4.800781 36 C 4.800781 18.796875 18.796875 4.800781 36 4.800781 C 53.203125 4.800781 67.199219 18.796875 67.199219 36 C 67.199219 53.203125 53.203125 67.199219 36 67.199219 Z M 36 67.199219 " fill-opacity="1" fill-rule="nonzero"/><path fill="#14252f" d="M 48.554688 33.601562 L 38.398438 33.601562 L 38.398438 23.445312 C 38.398438 22.117188 37.324219 21.042969 36 21.042969 C 34.675781 21.042969 33.601562 22.117188 33.601562 23.441406 L 33.601562 33.601562 L 23.441406 33.601562 C 22.117188 33.601562 21.042969 34.675781 21.042969 36 C 21.042969 37.324219 22.117188 38.398438 23.441406 38.398438 L 33.601562 38.398438 L 33.601562 48.558594 C 33.601562 49.882812 34.675781 50.957031 36 50.957031 C 37.324219 50.957031 38.398438 49.882812 38.398438 48.558594 L 38.398438 38.398438 L 48.554688 38.398438 C 49.882812 38.398438 50.957031 37.324219 50.957031 36 C 50.957031 34.675781 49.882812 33.601562 48.554688 33.601562 Z M 48.554688 33.601562 " fill-opacity="1" fill-rule="nonzero"/></svg>