<svg xmlns="http://www.w3.org/2000/svg" xmlns:xlink="http://www.w3.org/1999/xlink" width="96" zoomAndPan="magnify" viewBox="0 0 72 72" height="96" preserveAspectRatio="xMidYMid meet" version="1.0"><path fill="#13252f" d="M 61.746094 29.183594 C 62.042969 30.128906 62.292969 31.089844 62.492188 32.058594 C 62.6875 33.03125 62.835938 34.011719 62.929688 35 C 63.027344 35.988281 63.070312 36.980469 63.0625 37.972656 C 63.054688 38.964844 62.996094 39.953125 62.882812 40.9375 C 62.773438 41.925781 62.609375 42.902344 62.394531 43.871094 C 62.183594 44.839844 61.917969 45.796875 61.605469 46.738281 C 61.292969 47.679688 60.929688 48.601562 60.519531 49.507812 C 60.109375 50.410156 59.652344 51.289062 59.152344 52.144531 C 58.648438 53 58.101562 53.828125 57.515625 54.628906 C 56.925781 55.425781 56.296875 56.191406 55.628906 56.925781 C 54.957031 57.660156 54.253906 58.355469 53.511719 59.015625 C 52.769531 59.671875 51.996094 60.292969 51.1875 60.871094 C 50.382812 61.449219 49.546875 61.984375 48.683594 62.472656 C 47.820312 62.964844 46.9375 63.410156 46.027344 63.808594 C 45.117188 64.207031 44.191406 64.554688 43.246094 64.855469 C 42.300781 65.160156 41.339844 65.410156 40.367188 65.609375 C 39.398438 65.8125 38.417969 65.960938 37.429688 66.058594 C 36.441406 66.15625 35.453125 66.203125 34.460938 66.199219 C 33.46875 66.195312 32.476562 66.136719 31.492188 66.027344 C 30.503906 65.917969 29.527344 65.757812 28.558594 65.546875 C 27.585938 65.335938 26.632812 65.074219 25.6875 64.765625 C 24.746094 64.453125 23.824219 64.09375 22.917969 63.6875 C 22.011719 63.277344 21.132812 62.824219 20.273438 62.324219 C 19.417969 61.824219 18.589844 61.28125 17.789062 60.695312 C 16.988281 60.109375 16.21875 59.480469 15.484375 58.8125 C 14.75 58.148438 14.050781 57.441406 13.390625 56.703125 C 12.730469 55.964844 12.109375 55.191406 11.527344 54.386719 C 10.949219 53.582031 10.410156 52.746094 9.917969 51.886719 C 9.425781 51.023438 8.976562 50.140625 8.578125 49.230469 C 8.175781 48.324219 7.824219 47.398438 7.519531 46.453125 C 7.214844 45.507812 6.964844 44.550781 6.757812 43.578125 C 6.554688 42.609375 6.402344 41.628906 6.304688 40.640625 C 6.203125 39.652344 6.152344 38.664062 6.15625 37.671875 C 6.15625 36.679688 6.210938 35.6875 6.320312 34.703125 C 6.425781 33.714844 6.582031 32.738281 6.789062 31.765625 C 7 30.796875 7.257812 29.839844 7.566406 28.894531 C 7.875 27.953125 8.230469 27.027344 8.636719 26.121094 C 9.042969 25.214844 9.496094 24.332031 9.992188 23.476562 C 10.488281 22.617188 11.03125 21.785156 11.617188 20.984375 C 12.199219 20.179688 12.824219 19.414062 13.488281 18.675781 C 14.15625 17.9375 14.855469 17.238281 15.59375 16.574219 C 16.332031 15.914062 17.105469 15.289062 17.90625 14.707031 C 18.710938 14.125 19.542969 13.585938 20.402344 13.089844 C 21.261719 12.59375 22.144531 12.144531 23.054688 11.742188 C 23.960938 11.339844 24.886719 10.984375 25.828125 10.679688 C 26.773438 10.371094 27.730469 10.117188 28.699219 9.910156 C 29.671875 9.703125 30.652344 9.550781 31.636719 9.445312 C 32.625 9.34375 33.613281 9.289062 34.605469 9.289062 C 37.53125 9.285156 40.390625 9.730469 43.175781 10.625 L 44.246094 7.308594 C 41.113281 6.300781 37.898438 5.800781 34.605469 5.804688 C 33.492188 5.808594 32.382812 5.867188 31.277344 5.980469 C 30.167969 6.097656 29.070312 6.273438 27.980469 6.503906 C 26.894531 6.734375 25.820312 7.023438 24.761719 7.367188 C 23.703125 7.710938 22.664062 8.109375 21.648438 8.5625 C 20.628906 9.015625 19.640625 9.519531 18.675781 10.074219 C 17.710938 10.628906 16.777344 11.234375 15.875 11.890625 C 14.976562 12.542969 14.113281 13.242188 13.285156 13.984375 C 12.457031 14.730469 11.667969 15.515625 10.921875 16.339844 C 10.175781 17.167969 9.476562 18.03125 8.820312 18.929688 C 8.164062 19.832031 7.558594 20.761719 7 21.726562 C 6.441406 22.6875 5.9375 23.675781 5.480469 24.695312 C 5.027344 25.710938 4.625 26.746094 4.28125 27.804688 C 3.933594 28.863281 3.644531 29.9375 3.410156 31.023438 C 3.175781 32.113281 3 33.210938 2.882812 34.316406 C 2.761719 35.425781 2.703125 36.535156 2.699219 37.648438 C 2.695312 38.761719 2.75 39.871094 2.863281 40.976562 C 2.980469 42.085938 3.148438 43.183594 3.378906 44.273438 C 3.605469 45.363281 3.890625 46.4375 4.230469 47.496094 C 4.570312 48.558594 4.964844 49.597656 5.417969 50.613281 C 5.867188 51.632812 6.367188 52.625 6.921875 53.589844 C 7.472656 54.558594 8.074219 55.492188 8.726562 56.394531 C 9.378906 57.296875 10.074219 58.164062 10.816406 58.996094 C 11.558594 59.824219 12.339844 60.613281 13.164062 61.363281 C 13.988281 62.109375 14.847656 62.8125 15.746094 63.472656 C 16.644531 64.128906 17.574219 64.738281 18.535156 65.300781 C 19.496094 65.859375 20.484375 66.371094 21.5 66.828125 C 22.515625 67.285156 23.550781 67.6875 24.609375 68.039062 C 25.664062 68.386719 26.738281 68.679688 27.824219 68.917969 C 28.914062 69.15625 30.007812 69.332031 31.117188 69.457031 C 32.222656 69.578125 33.332031 69.640625 34.445312 69.648438 C 35.558594 69.65625 36.667969 69.601562 37.777344 69.492188 C 38.882812 69.382812 39.984375 69.214844 41.074219 68.988281 C 42.164062 68.765625 43.238281 68.484375 44.300781 68.144531 C 45.359375 67.808594 46.402344 67.417969 47.421875 66.96875 C 48.441406 66.523438 49.433594 66.027344 50.402344 65.476562 C 51.371094 64.925781 52.304688 64.324219 53.210938 63.675781 C 54.117188 63.027344 54.984375 62.335938 55.816406 61.597656 C 56.648438 60.855469 57.441406 60.078125 58.191406 59.253906 C 58.941406 58.433594 59.648438 57.574219 60.308594 56.679688 C 60.96875 55.78125 61.582031 54.855469 62.144531 53.894531 C 62.710938 52.933594 63.222656 51.949219 63.683594 50.933594 C 64.140625 49.921875 64.546875 48.886719 64.902344 47.832031 C 65.253906 46.773438 65.550781 45.703125 65.789062 44.617188 C 66.03125 43.527344 66.214844 42.433594 66.339844 41.328125 C 66.464844 40.21875 66.53125 39.109375 66.539062 37.996094 C 66.550781 36.882812 66.5 35.773438 66.394531 34.664062 C 66.289062 33.558594 66.125 32.457031 65.902344 31.367188 C 65.679688 30.277344 65.402344 29.199219 65.066406 28.136719 Z M 61.746094 29.183594 " fill-opacity="1" fill-rule="nonzero"/><path fill="#13252f" d="M 25.003906 35.027344 L 25.003906 47.34375 L 37.320312 47.34375 L 71.910156 12.757812 L 59.589844 0.441406 Z M 35.878906 43.863281 L 28.488281 43.863281 L 28.488281 36.472656 L 53.023438 11.9375 L 60.410156 19.328125 Z M 62.875 16.863281 L 55.488281 9.472656 L 59.59375 5.367188 L 66.984375 12.757812 Z M 62.875 16.863281 " fill-opacity="1" fill-rule="nonzero"/></svg>