<svg xmlns="http://www.w3.org/2000/svg" xmlns:xlink="http://www.w3.org/1999/xlink" width="96" zoomAndPan="magnify" viewBox="0 0 72 72" height="96" preserveAspectRatio="xMidYMid meet" version="1.0"><defs><clipPath id="id1"><path d="M 8.09375 0 L 63.59375 0 L 63.59375 72 L 8.09375 72 Z M 8.09375 0 " clip-rule="nonzero"/></clipPath></defs><g clip-path="url(#id1)"><path fill="#f7f7f7" d="M 63.59375 66.554688 C 63.59375 47.347656 51.15625 31.785156 35.84375 31.785156 C 20.527344 31.785156 8.09375 47.347656 8.09375 66.554688 C 8.09375 69.550781 20.527344 71.992188 35.84375 71.992188 C 51.15625 71.992188 63.59375 69.550781 63.59375 66.554688 Z M 35.84375 0.0078125 C 44.195312 0.0078125 50.964844 6.8125 50.964844 15.210938 C 50.964844 23.613281 44.195312 30.417969 35.84375 30.417969 C 27.488281 30.417969 20.71875 23.613281 20.71875 15.210938 C 20.71875 6.8125 27.488281 0.0078125 35.84375 0.0078125 Z M 35.84375 0.0078125 " fill-opacity="1" fill-rule="evenodd"/></g></svg>