<svg xmlns="http://www.w3.org/2000/svg" xmlns:xlink="http://www.w3.org/1999/xlink" width="96" zoomAndPan="magnify" viewBox="0 0 72 72" height="96" preserveAspectRatio="xMidYMid meet" version="1.0"><defs><g/><clipPath id="id1"><path d="M 0 27.128906 L 11.25 27.128906 L 11.25 45.128906 L 0 45.128906 Z M 0 27.128906 " clip-rule="nonzero"/></clipPath></defs><g clip-path="url(#id1)"><path fill="#f7f7f7" d="M 9.285156 45.113281 L 0 36.160156 L 9.351562 27.144531 L 11.253906 28.976562 L 3.804688 36.160156 L 11.1875 43.28125 L 9.285156 45.113281 " fill-opacity="1" fill-rule="nonzero"/></g><g fill="#f7f7f7" fill-opacity="1"><g transform="translate(20.177951, 41.597897)"><g><path d="M 7.667969 0 L 10.242188 0 L 7.773438 -3.15625 C 9.171875 -3.757812 9.925781 -4.960938 9.925781 -6.78125 C 9.925781 -8.765625 8.871094 -10.601562 5.773438 -10.601562 L 1.097656 -10.601562 L 1.097656 0 L 3.25 0 L 3.25 -2.722656 L 5.21875 -2.722656 C 5.351562 -2.722656 5.503906 -2.722656 5.625 -2.738281 Z M 3.25 -4.496094 L 3.25 -8.738281 L 5.429688 -8.738281 C 7.097656 -8.738281 7.667969 -7.714844 7.667969 -6.617188 C 7.667969 -5.367188 6.855469 -4.496094 5.144531 -4.496094 Z M 3.25 -4.496094 "/></g></g></g><g fill="#f7f7f7" fill-opacity="1"><g transform="translate(30.747702, 41.597897)"><g><path d="M 8.691406 -3.488281 C 8.691406 -3.625 8.707031 -3.789062 8.707031 -3.953125 C 8.707031 -6.496094 7.25 -8.316406 4.738281 -8.316406 C 2.269531 -8.316406 0.554688 -6.4375 0.554688 -4.089844 C 0.554688 -1.757812 2.269531 0.121094 4.738281 0.121094 C 6.332031 0.121094 7.667969 -0.542969 8.421875 -1.5625 L 7.082031 -2.675781 C 6.632812 -2.058594 5.835938 -1.667969 4.976562 -1.667969 C 3.730469 -1.667969 2.871094 -2.421875 2.648438 -3.488281 Z M 4.738281 -6.648438 C 6.136719 -6.648438 6.632812 -5.757812 6.707031 -4.828125 L 2.660156 -4.828125 C 2.855469 -5.835938 3.640625 -6.648438 4.738281 -6.648438 Z M 4.738281 -6.648438 "/></g></g></g><g fill="#f7f7f7" fill-opacity="1"><g transform="translate(39.994356, 41.597897)"><g><path d="M 3.578125 -6.4375 L 5.863281 -6.4375 L 5.863281 -8.164062 L 3.578125 -8.164062 L 3.578125 -11.339844 L 1.472656 -11.339844 L 1.472656 -8.164062 L 0.316406 -8.164062 L 0.316406 -6.4375 L 1.472656 -6.4375 L 1.472656 -2.449219 C 1.472656 -0.738281 2.570312 0.121094 3.941406 0.121094 C 5.113281 0.121094 5.746094 -0.148438 5.835938 -0.179688 L 5.835938 -1.746094 C 5.550781 -1.714844 5.234375 -1.667969 4.871094 -1.667969 C 3.820312 -1.667969 3.578125 -2.089844 3.578125 -3.550781 Z M 3.578125 -6.4375 "/></g></g></g><g fill="#f7f7f7" fill-opacity="1"><g transform="translate(46.264036, 41.597897)"><g><path d="M 4.992188 -8.316406 C 2.527344 -8.316406 0.527344 -6.4375 0.527344 -4.089844 C 0.527344 -1.757812 2.527344 0.121094 4.992188 0.121094 C 7.457031 0.121094 9.457031 -1.757812 9.457031 -4.089844 C 9.457031 -6.4375 7.457031 -8.316406 4.992188 -8.316406 Z M 4.992188 -1.757812 C 3.667969 -1.757812 2.585938 -2.8125 2.585938 -4.089844 C 2.585938 -5.382812 3.667969 -6.4375 4.992188 -6.4375 C 6.332031 -6.4375 7.398438 -5.382812 7.398438 -4.089844 C 7.398438 -2.8125 6.332031 -1.757812 4.992188 -1.757812 Z M 4.992188 -1.757812 "/></g></g></g><g fill="#f7f7f7" fill-opacity="1"><g transform="translate(56.27749, 41.597897)"><g><path d="M 8.660156 -8.164062 L 6.570312 -8.164062 L 6.570312 -2.40625 C 6.089844 -2 5.472656 -1.757812 4.722656 -1.757812 C 3.5625 -1.757812 2.949219 -2.375 2.949219 -3.640625 L 2.949219 -8.164062 L 0.855469 -8.164062 L 0.855469 -3.640625 C 0.855469 -0.992188 1.953125 0.121094 4.347656 0.121094 C 5.1875 0.121094 5.953125 -0.121094 6.570312 -0.542969 L 6.570312 0 L 8.660156 0 Z M 8.660156 -8.164062 "/></g></g></g><g fill="#f7f7f7" fill-opacity="1"><g transform="translate(65.884988, 41.597897)"><g><path d="M 3.050781 -8.164062 L 0.949219 -8.164062 L 0.949219 0 L 3.050781 0 L 3.050781 -3.941406 C 3.050781 -5.007812 3.625 -6.074219 5.128906 -6.074219 C 5.5625 -6.074219 6.136719 -5.953125 6.136719 -5.953125 L 6.136719 -8.226562 C 5.96875 -8.285156 5.773438 -8.316406 5.625 -8.316406 C 4.464844 -8.300781 3.609375 -7.789062 3.050781 -7.023438 Z M 3.050781 -8.164062 "/></g></g></g></svg>