<svg xmlns="http://www.w3.org/2000/svg" xmlns:xlink="http://www.w3.org/1999/xlink" width="96" zoomAndPan="magnify" viewBox="0 0 72 72" height="96" preserveAspectRatio="xMidYMid meet" version="1.0"><path fill="#13252f" d="M 36 0 C 16.164062 0 0 16.164062 0 36 C 0 55.835938 16.164062 72 36 72 C 55.835938 72 72 55.835938 72 36 C 72 16.164062 55.835938 0 36 0 Z M 36 66.851562 C 18.972656 66.851562 5.148438 53.027344 5.148438 36 C 5.148438 18.972656 18.972656 5.148438 36 5.148438 C 53.027344 5.148438 66.851562 18.972656 66.851562 36 C 66.851562 53.027344 53.027344 66.851562 36 66.851562 Z M 36 66.851562 " fill-opacity="1" fill-rule="nonzero"/><path fill="#13252f" d="M 26.855469 40.714844 C 25.667969 39.925781 25.34375 38.339844 26.136719 37.152344 C 26.929688 35.964844 28.511719 35.640625 29.699219 36.433594 L 33.40625 38.914062 L 33.40625 20.554688 C 33.40625 19.152344 34.558594 18 35.964844 18 C 37.367188 18 38.519531 19.152344 38.519531 20.554688 L 38.519531 38.878906 L 42.226562 36.394531 C 43.414062 35.605469 45 35.929688 45.792969 37.117188 C 46.585938 38.304688 46.261719 39.886719 45.070312 40.679688 L 37.441406 45.863281 C 37.402344 45.898438 37.367188 45.898438 37.332031 45.898438 C 37.296875 45.9375 37.261719 45.972656 37.222656 45.972656 C 37.117188 46.042969 37.007812 46.042969 36.898438 46.117188 C 36.828125 46.152344 36.757812 46.1875 36.683594 46.1875 C 36.46875 46.261719 36.253906 46.296875 36.035156 46.296875 C 35.820312 46.296875 35.566406 46.261719 35.351562 46.1875 C 35.28125 46.152344 35.207031 46.152344 35.136719 46.117188 C 34.992188 46.042969 34.847656 46.007812 34.703125 45.898438 C 34.667969 45.863281 34.632812 45.863281 34.597656 45.863281 Z M 26.855469 40.714844 " fill-opacity="1" fill-rule="nonzero"/><path fill="#13252f" d="M 51.445312 51.445312 C 51.445312 52.847656 50.292969 54 48.886719 54 L 23.148438 54 C 21.742188 54 20.59375 52.847656 20.59375 51.445312 C 20.59375 50.039062 21.742188 48.886719 23.148438 48.886719 L 48.851562 48.886719 C 50.292969 48.851562 51.445312 50.003906 51.445312 51.445312 Z M 51.445312 51.445312 " fill-opacity="1" fill-rule="nonzero"/></svg>