<svg xmlns="http://www.w3.org/2000/svg" xmlns:xlink="http://www.w3.org/1999/xlink" width="794" zoomAndPan="magnify" viewBox="0 0 594.95996 842.24997" height="1123" preserveAspectRatio="xMidYMid meet" version="1.0"><defs><clipPath id="id1"><path d="M 251 271 L 447.785156 271 L 447.785156 468 L 251 468 Z M 251 271 " clip-rule="nonzero"/></clipPath></defs><path fill="#13252f" d="M 404.917969 391.644531 C 405.539062 393.621094 406.113281 395.613281 406.632812 397.621094 C 407.152344 399.628906 407.617188 401.644531 408.03125 403.675781 C 408.445312 405.707031 408.808594 407.75 409.113281 409.800781 C 409.421875 411.847656 409.675781 413.90625 409.875 415.96875 C 410.074219 418.03125 410.222656 420.097656 410.3125 422.171875 C 410.40625 424.242188 410.441406 426.3125 410.425781 428.386719 C 410.410156 430.457031 410.339844 432.53125 410.214844 434.597656 C 410.089844 436.667969 409.910156 438.734375 409.679688 440.792969 C 409.445312 442.851562 409.160156 444.90625 408.820312 446.949219 C 408.480469 448.996094 408.085938 451.027344 407.640625 453.054688 C 407.195312 455.078125 406.695312 457.089844 406.144531 459.085938 C 405.589844 461.085938 404.988281 463.066406 404.332031 465.035156 C 403.675781 467 402.972656 468.949219 402.214844 470.878906 C 401.457031 472.808594 400.652344 474.71875 399.792969 476.605469 C 398.9375 478.492188 398.03125 480.355469 397.078125 482.195312 C 396.121094 484.035156 395.121094 485.851562 394.070312 487.640625 C 393.023438 489.425781 391.929688 491.1875 390.785156 492.917969 C 389.644531 494.648438 388.460938 496.347656 387.230469 498.015625 C 386 499.683594 384.726562 501.320312 383.410156 502.921875 C 382.097656 504.523438 380.738281 506.089844 379.34375 507.621094 C 377.945312 509.152344 376.507812 510.644531 375.035156 512.101562 C 373.558594 513.558594 372.046875 514.972656 370.496094 516.351562 C 368.945312 517.726562 367.363281 519.0625 365.742188 520.359375 C 364.125 521.652344 362.472656 522.902344 360.785156 524.109375 C 359.101562 525.320312 357.386719 526.480469 355.640625 527.601562 C 353.894531 528.71875 352.121094 529.789062 350.320312 530.816406 C 348.519531 531.839844 346.691406 532.816406 344.839844 533.746094 C 342.988281 534.679688 341.109375 535.558594 339.210938 536.390625 C 337.3125 537.222656 335.394531 538.003906 333.453125 538.734375 C 331.515625 539.464844 329.558594 540.148438 327.582031 540.777344 C 325.605469 541.40625 323.617188 541.980469 321.613281 542.507812 C 319.605469 543.03125 317.589844 543.503906 315.558594 543.925781 C 313.527344 544.34375 311.488281 544.710938 309.441406 545.023438 C 307.390625 545.335938 305.335938 545.59375 303.273438 545.800781 C 301.210938 546.007812 299.144531 546.15625 297.070312 546.253906 C 295 546.351562 292.929688 546.394531 290.855469 546.382812 C 288.785156 546.375 286.710938 546.308594 284.644531 546.1875 C 282.574219 546.070312 280.507812 545.898438 278.449219 545.667969 C 276.386719 545.441406 274.335938 545.160156 272.289062 544.828125 C 270.242188 544.492188 268.207031 544.105469 266.183594 543.664062 C 264.15625 543.222656 262.144531 542.730469 260.144531 542.183594 C 258.144531 541.636719 256.160156 541.039062 254.191406 540.390625 C 252.222656 539.738281 250.273438 539.039062 248.339844 538.285156 C 246.410156 537.535156 244.5 536.734375 242.609375 535.882812 C 240.71875 535.03125 238.851562 534.128906 237.011719 533.179688 C 235.167969 532.230469 233.351562 531.234375 231.558594 530.1875 C 229.769531 529.144531 228.007812 528.054688 226.273438 526.917969 C 224.539062 525.78125 222.835938 524.601562 221.164062 523.375 C 219.492188 522.148438 217.855469 520.882812 216.25 519.570312 C 214.644531 518.257812 213.074219 516.90625 211.539062 515.511719 C 210.003906 514.121094 208.503906 512.6875 207.046875 511.214844 C 205.585938 509.746094 204.164062 508.234375 202.785156 506.691406 C 201.402344 505.144531 200.0625 503.5625 198.765625 501.949219 C 197.464844 500.332031 196.210938 498.683594 195 497.003906 C 193.785156 495.320312 192.617188 493.609375 191.496094 491.867188 C 190.375 490.125 189.296875 488.351562 188.265625 486.554688 C 187.234375 484.753906 186.253906 482.929688 185.320312 481.082031 C 184.382812 479.230469 183.5 477.355469 182.660156 475.460938 C 181.824219 473.5625 181.039062 471.648438 180.300781 469.710938 C 179.5625 467.773438 178.878906 465.816406 178.246094 463.84375 C 177.609375 461.871094 177.027344 459.878906 176.496094 457.875 C 175.964844 455.871094 175.488281 453.855469 175.0625 451.828125 C 174.640625 449.796875 174.265625 447.761719 173.949219 445.710938 C 173.628906 443.664062 173.367188 441.609375 173.15625 439.546875 C 172.945312 437.484375 172.785156 435.417969 172.683594 433.347656 C 172.582031 431.277344 172.53125 429.203125 172.539062 427.128906 C 172.542969 425.058594 172.601562 422.984375 172.71875 420.917969 C 172.832031 418.847656 173 416.78125 173.222656 414.71875 C 173.441406 412.65625 173.71875 410.605469 174.046875 408.558594 C 174.375 406.511719 174.757812 404.472656 175.195312 402.445312 C 175.628906 400.421875 176.117188 398.40625 176.660156 396.40625 C 177.199219 394.402344 177.792969 392.417969 178.4375 390.449219 C 179.082031 388.476562 179.777344 386.523438 180.523438 384.589844 C 181.273438 382.65625 182.066406 380.742188 182.914062 378.851562 C 183.761719 376.960938 184.65625 375.089844 185.601562 373.246094 C 186.546875 371.398438 187.539062 369.582031 188.578125 367.785156 C 189.617188 365.992188 190.703125 364.226562 191.835938 362.492188 C 192.964844 360.753906 194.144531 359.050781 195.363281 357.375 C 196.585938 355.699219 197.847656 354.054688 199.15625 352.445312 C 200.460938 350.839844 201.8125 349.265625 203.199219 347.726562 C 204.589844 346.1875 206.015625 344.683594 207.484375 343.222656 C 208.953125 341.757812 210.457031 340.332031 212 338.949219 C 213.542969 337.5625 215.117188 336.21875 216.730469 334.914062 C 218.34375 333.613281 219.988281 332.351562 221.667969 331.136719 C 223.34375 329.917969 225.054688 328.746094 226.792969 327.621094 C 228.53125 326.492188 230.300781 325.410156 232.097656 324.375 C 233.890625 323.339844 235.714844 322.355469 237.5625 321.414062 C 239.410156 320.476562 241.28125 319.585938 243.175781 318.742188 C 245.066406 317.902344 246.984375 317.109375 248.917969 316.367188 C 250.855469 315.625 252.808594 314.933594 254.777344 314.296875 C 256.75 313.65625 258.738281 313.066406 260.738281 312.53125 C 262.742188 311.996094 264.757812 311.511719 266.785156 311.082031 C 268.8125 310.652344 270.851562 310.277344 272.898438 309.953125 C 274.945312 309.628906 277 309.359375 279.058594 309.140625 C 281.121094 308.925781 283.1875 308.761719 285.257812 308.65625 C 287.328125 308.546875 289.398438 308.492188 291.472656 308.492188 C 303.703125 308.46875 315.644531 310.328125 327.292969 314.066406 L 331.765625 300.207031 C 318.664062 295.996094 305.234375 293.90625 291.472656 293.929688 C 289.144531 293.929688 286.824219 293.992188 284.5 294.113281 C 282.179688 294.238281 279.863281 294.417969 277.550781 294.664062 C 275.238281 294.90625 272.933594 295.210938 270.636719 295.574219 C 268.339844 295.9375 266.054688 296.363281 263.78125 296.847656 C 261.507812 297.328125 259.246094 297.871094 257 298.472656 C 254.753906 299.074219 252.527344 299.734375 250.3125 300.453125 C 248.101562 301.171875 245.910156 301.949219 243.742188 302.78125 C 241.570312 303.613281 239.421875 304.5 237.296875 305.445312 C 235.171875 306.390625 233.074219 307.390625 231.003906 308.445312 C 228.929688 309.5 226.886719 310.609375 224.875 311.769531 C 222.859375 312.929688 220.878906 314.144531 218.925781 315.410156 C 216.976562 316.675781 215.058594 317.988281 213.175781 319.355469 C 211.292969 320.722656 209.449219 322.132812 207.640625 323.597656 C 205.832031 325.058594 204.066406 326.566406 202.335938 328.121094 C 200.605469 329.675781 198.917969 331.273438 197.273438 332.914062 C 195.625 334.558594 194.023438 336.242188 192.46875 337.96875 C 190.910156 339.695312 189.398438 341.460938 187.933594 343.265625 C 186.46875 345.070312 185.050781 346.910156 183.679688 348.789062 C 182.3125 350.667969 180.992188 352.582031 179.722656 354.53125 C 178.453125 356.480469 177.238281 358.460938 176.070312 360.472656 C 174.90625 362.484375 173.792969 364.523438 172.734375 366.59375 C 171.675781 368.664062 170.671875 370.761719 169.722656 372.882812 C 168.773438 375.003906 167.878906 377.152344 167.042969 379.320312 C 166.203125 381.488281 165.425781 383.679688 164.703125 385.890625 C 163.980469 388.097656 163.316406 390.324219 162.707031 392.570312 C 162.101562 394.816406 161.554688 397.074219 161.066406 399.347656 C 160.578125 401.621094 160.148438 403.90625 159.78125 406.199219 C 159.410156 408.496094 159.101562 410.800781 158.855469 413.113281 C 158.605469 415.421875 158.417969 417.742188 158.292969 420.0625 C 158.164062 422.382812 158.097656 424.707031 158.089844 427.03125 C 158.085938 429.355469 158.140625 431.679688 158.257812 434.003906 C 158.371094 436.324219 158.546875 438.644531 158.785156 440.957031 C 159.019531 443.269531 159.316406 445.574219 159.675781 447.871094 C 160.03125 450.167969 160.449219 452.457031 160.925781 454.730469 C 161.402344 457.007812 161.9375 459.269531 162.535156 461.515625 C 163.128906 463.765625 163.78125 465.996094 164.496094 468.207031 C 165.207031 470.421875 165.976562 472.613281 166.800781 474.789062 C 167.628906 476.960938 168.507812 479.113281 169.449219 481.238281 C 170.386719 483.367188 171.378906 485.46875 172.429688 487.542969 C 173.476562 489.617188 174.578125 491.664062 175.734375 493.683594 C 176.890625 495.699219 178.097656 497.6875 179.355469 499.640625 C 180.617188 501.59375 181.925781 503.515625 183.285156 505.402344 C 184.644531 507.289062 186.054688 509.136719 187.507812 510.949219 C 188.964844 512.761719 190.46875 514.535156 192.019531 516.269531 C 193.566406 518.003906 195.160156 519.695312 196.796875 521.347656 C 198.433594 522.996094 200.113281 524.601562 201.835938 526.167969 C 203.558594 527.730469 205.320312 529.246094 207.121094 530.714844 C 208.921875 532.1875 210.757812 533.609375 212.632812 534.984375 C 214.507812 536.359375 216.417969 537.683594 218.363281 538.960938 C 220.308594 540.234375 222.285156 541.457031 224.292969 542.628906 C 226.300781 543.800781 228.335938 544.917969 230.402344 545.984375 C 232.472656 547.050781 234.5625 548.058594 236.683594 549.015625 C 238.804688 549.972656 240.945312 550.871094 243.113281 551.714844 C 245.28125 552.558594 247.46875 553.34375 249.675781 554.074219 C 251.882812 554.804688 254.109375 555.472656 256.351562 556.085938 C 258.59375 556.699219 260.851562 557.253906 263.121094 557.75 C 265.394531 558.242188 267.675781 558.679688 269.972656 559.054688 C 272.265625 559.429688 274.570312 559.746094 276.878906 560 C 279.191406 560.257812 281.507812 560.453125 283.828125 560.585938 C 286.148438 560.71875 288.472656 560.792969 290.796875 560.804688 C 293.125 560.820312 295.445312 560.769531 297.769531 560.660156 C 300.09375 560.554688 302.410156 560.382812 304.722656 560.152344 C 307.039062 559.925781 309.34375 559.632812 311.640625 559.285156 C 313.941406 558.933594 316.230469 558.523438 318.503906 558.054688 C 320.78125 557.582031 323.046875 557.054688 325.296875 556.464844 C 327.546875 555.875 329.777344 555.230469 331.992188 554.523438 C 334.207031 553.820312 336.40625 553.058594 338.582031 552.238281 C 340.757812 551.417969 342.910156 550.542969 345.039062 549.609375 C 347.167969 548.675781 349.273438 547.691406 351.351562 546.648438 C 353.429688 545.605469 355.480469 544.507812 357.5 543.359375 C 359.523438 542.210938 361.511719 541.007812 363.46875 539.753906 C 365.429688 538.503906 367.351562 537.199219 369.242188 535.84375 C 371.132812 534.488281 372.984375 533.085938 374.800781 531.636719 C 376.621094 530.1875 378.398438 528.6875 380.136719 527.144531 C 381.875 525.601562 383.570312 524.011719 385.226562 522.378906 C 386.882812 520.746094 388.492188 519.074219 390.0625 517.355469 C 391.628906 515.640625 393.152344 513.882812 394.628906 512.085938 C 396.105469 510.289062 397.53125 508.457031 398.914062 506.585938 C 400.292969 504.714844 401.625 502.808594 402.902344 500.867188 C 404.183594 498.925781 405.414062 496.953125 406.589844 494.949219 C 407.769531 492.945312 408.894531 490.910156 409.964844 488.847656 C 411.035156 486.78125 412.050781 484.691406 413.015625 482.574219 C 413.976562 480.457031 414.882812 478.316406 415.730469 476.152344 C 416.582031 473.988281 417.375 471.804688 418.109375 469.597656 C 418.847656 467.394531 419.523438 465.171875 420.144531 462.929688 C 420.765625 460.6875 421.324219 458.433594 421.828125 456.164062 C 422.328125 453.890625 422.769531 451.609375 423.152344 449.316406 C 423.535156 447.023438 423.855469 444.722656 424.121094 442.410156 C 424.382812 440.101562 424.582031 437.785156 424.722656 435.464844 C 424.863281 433.144531 424.945312 430.820312 424.964844 428.496094 C 424.984375 426.171875 424.945312 423.847656 424.84375 421.523438 C 424.738281 419.203125 424.578125 416.882812 424.355469 414.570312 C 424.132812 412.253906 423.847656 409.949219 423.503906 407.648438 C 423.160156 405.347656 422.757812 403.058594 422.292969 400.78125 C 421.832031 398.503906 421.308594 396.238281 420.726562 393.984375 C 420.144531 391.734375 419.503906 389.5 418.808594 387.28125 Z M 404.917969 391.644531 " fill-opacity="1" fill-rule="nonzero"/><g clip-path="url(#id1)"><path fill="#13252f" d="M 251.328125 416.085938 L 251.328125 467.574219 L 302.816406 467.574219 L 447.402344 322.980469 L 395.914062 271.5 Z M 296.785156 453.007812 L 265.890625 453.007812 L 265.890625 422.117188 L 368.453125 319.550781 L 399.34375 350.445312 Z M 409.640625 340.148438 L 378.753906 309.253906 L 395.917969 292.089844 L 426.816406 322.980469 Z M 409.640625 340.148438 " fill-opacity="1" fill-rule="nonzero"/></g></svg>