<svg xmlns="http://www.w3.org/2000/svg" xmlns:xlink="http://www.w3.org/1999/xlink" width="96" zoomAndPan="magnify" viewBox="0 0 72 72" height="96" preserveAspectRatio="xMidYMid meet" version="1.0"><defs><clipPath id="id1"><path d="M 2.746094 0 L 69.496094 0 L 69.496094 72 L 2.746094 72 Z M 2.746094 0 " clip-rule="nonzero"/></clipPath></defs><g clip-path="url(#id1)"><path fill="#14252f" d="M 69.472656 38.769531 C 69.472656 57.089844 54.507812 72 36.121094 72 C 17.730469 72 2.765625 57.089844 2.765625 38.769531 C 2.765625 25.824219 10.398438 13.96875 22.207031 8.5625 C 23.597656 7.921875 25.25 8.535156 25.890625 9.921875 C 26.53125 11.3125 25.921875 12.957031 24.527344 13.59375 C 14.6875 18.101562 8.328125 27.984375 8.328125 38.769531 C 8.328125 54.039062 20.792969 66.460938 36.121094 66.460938 C 51.445312 66.460938 63.914062 54.039062 63.914062 38.769531 C 63.914062 27.980469 57.554688 18.101562 47.710938 13.59375 C 46.3125 12.957031 45.707031 11.3125 46.347656 9.921875 C 46.992188 8.53125 48.640625 7.925781 50.035156 8.5625 C 61.84375 13.96875 69.472656 25.824219 69.472656 38.769531 Z M 36.121094 47.078125 C 37.65625 47.078125 38.898438 45.839844 38.898438 44.308594 L 38.898438 2.769531 C 38.898438 1.238281 37.65625 0 36.121094 0 C 34.582031 0 33.339844 1.238281 33.339844 2.769531 L 33.339844 44.308594 C 33.339844 45.839844 34.582031 47.078125 36.121094 47.078125 Z M 36.121094 47.078125 " fill-opacity="1" fill-rule="nonzero"/></g></svg>