<svg xmlns="http://www.w3.org/2000/svg" xmlns:xlink="http://www.w3.org/1999/xlink" width="793" zoomAndPan="magnify" viewBox="0 0 594.95996 842.24997" height="1122" preserveAspectRatio="xMidYMid meet" version="1.0"><defs><g/><clipPath id="id1"><path d="M 145.542969 382.339844 L 192.710938 382.339844 L 192.710938 460.203125 L 145.542969 460.203125 Z M 145.542969 382.339844 " clip-rule="nonzero"/></clipPath></defs><g clip-path="url(#id1)"><path fill="#13252f" d="M 184.476562 460.117188 L 145.546875 421.402344 L 184.746094 382.417969 L 192.71875 390.34375 L 161.488281 421.402344 L 192.449219 452.1875 L 184.476562 460.117188 " fill-opacity="1" fill-rule="nonzero"/></g><g fill="#13252f" fill-opacity="1"><g transform="translate(228.505617, 445.764629)"><g><path d="M 32.757812 0 L 43.742188 0 L 33.207031 -13.488281 C 39.179688 -16.058594 42.394531 -21.195312 42.394531 -28.96875 C 42.394531 -37.445312 37.898438 -45.28125 24.664062 -45.28125 L 4.6875 -45.28125 L 4.6875 0 L 13.875 0 L 13.875 -11.625 L 22.289062 -11.625 C 22.867188 -11.625 23.507812 -11.625 24.023438 -11.691406 Z M 13.875 -19.207031 L 13.875 -37.320312 L 23.1875 -37.320312 C 30.316406 -37.320312 32.757812 -32.949219 32.757812 -28.261719 C 32.757812 -22.929688 29.289062 -19.207031 21.96875 -19.207031 Z M 13.875 -19.207031 "/></g></g></g><g fill="#13252f" fill-opacity="1"><g transform="translate(273.6595, 445.764629)"><g><path d="M 37.125 -14.902344 C 37.125 -15.480469 37.191406 -16.1875 37.191406 -16.894531 C 37.191406 -27.746094 30.960938 -35.519531 20.234375 -35.519531 C 9.699219 -35.519531 2.375 -27.492188 2.375 -17.472656 C 2.375 -7.515625 9.699219 0.515625 20.234375 0.515625 C 27.042969 0.515625 32.757812 -2.3125 35.96875 -6.679688 L 30.253906 -11.433594 C 28.324219 -8.800781 24.921875 -7.128906 21.261719 -7.128906 C 15.929688 -7.128906 12.269531 -10.339844 11.304688 -14.902344 Z M 20.234375 -28.390625 C 26.207031 -28.390625 28.324219 -24.601562 28.648438 -20.617188 L 11.367188 -20.617188 C 12.203125 -24.921875 15.542969 -28.390625 20.234375 -28.390625 Z M 20.234375 -28.390625 "/></g></g></g><g fill="#13252f" fill-opacity="1"><g transform="translate(313.161121, 445.764629)"><g><path d="M 15.285156 -27.492188 L 25.050781 -27.492188 L 25.050781 -34.878906 L 15.285156 -34.878906 L 15.285156 -48.429688 L 6.292969 -48.429688 L 6.292969 -34.878906 L 1.347656 -34.878906 L 1.347656 -27.492188 L 6.292969 -27.492188 L 6.292969 -10.46875 C 6.292969 -3.148438 10.984375 0.515625 16.828125 0.515625 C 21.839844 0.515625 24.535156 -0.640625 24.921875 -0.769531 L 24.921875 -7.449219 C 23.703125 -7.324219 22.351562 -7.128906 20.8125 -7.128906 C 16.316406 -7.128906 15.285156 -8.929688 15.285156 -15.160156 Z M 15.285156 -27.492188 "/></g></g></g><g fill="#13252f" fill-opacity="1"><g transform="translate(339.945146, 445.764629)"><g><path d="M 21.324219 -35.519531 C 10.789062 -35.519531 2.25 -27.492188 2.25 -17.472656 C 2.25 -7.515625 10.789062 0.515625 21.324219 0.515625 C 31.859375 0.515625 40.402344 -7.515625 40.402344 -17.472656 C 40.402344 -27.492188 31.859375 -35.519531 21.324219 -35.519531 Z M 21.324219 -7.515625 C 15.671875 -7.515625 11.046875 -12.011719 11.046875 -17.472656 C 11.046875 -22.996094 15.671875 -27.492188 21.324219 -27.492188 C 27.042969 -27.492188 31.601562 -22.996094 31.601562 -17.472656 C 31.601562 -12.011719 27.042969 -7.515625 21.324219 -7.515625 Z M 21.324219 -7.515625 "/></g></g></g><g fill="#13252f" fill-opacity="1"><g transform="translate(382.722508, 445.764629)"><g><path d="M 36.996094 -34.878906 L 28.070312 -34.878906 L 28.070312 -10.277344 C 26.015625 -8.542969 23.378906 -7.515625 20.167969 -7.515625 C 15.222656 -7.515625 12.589844 -10.148438 12.589844 -15.542969 L 12.589844 -34.878906 L 3.660156 -34.878906 L 3.660156 -15.542969 C 3.660156 -4.238281 8.351562 0.515625 18.5625 0.515625 C 22.160156 0.515625 25.4375 -0.515625 28.070312 -2.3125 L 28.070312 0 L 36.996094 0 Z M 36.996094 -34.878906 "/></g></g></g><g fill="#13252f" fill-opacity="1"><g transform="translate(423.765653, 445.764629)"><g><path d="M 13.039062 -34.878906 L 4.046875 -34.878906 L 4.046875 0 L 13.039062 0 L 13.039062 -16.828125 C 13.039062 -21.390625 15.480469 -25.949219 21.902344 -25.949219 C 23.765625 -25.949219 26.207031 -25.4375 26.207031 -25.4375 L 26.207031 -35.132812 C 25.5 -35.390625 24.664062 -35.519531 24.023438 -35.519531 C 19.078125 -35.457031 15.414062 -33.273438 13.039062 -29.996094 Z M 13.039062 -34.878906 "/></g></g></g></svg>