<svg xmlns="http://www.w3.org/2000/svg" xmlns:xlink="http://www.w3.org/1999/xlink" width="96" zoomAndPan="magnify" viewBox="0 0 72 72" height="96" preserveAspectRatio="xMidYMid meet" version="1.0"><defs><g/><clipPath id="id1"><path d="M 0 27.128906 L 11.25 27.128906 L 11.25 45.128906 L 0 45.128906 Z M 0 27.128906 " clip-rule="nonzero"/></clipPath></defs><g clip-path="url(#id1)"><path fill="#13252f" d="M 9.285156 45.113281 L 0 36.160156 L 9.351562 27.144531 L 11.253906 28.976562 L 3.804688 36.160156 L 11.1875 43.28125 L 9.285156 45.113281 " fill-opacity="1" fill-rule="nonzero"/></g><g fill="#13252f" fill-opacity="1"><g transform="translate(20.177951, 41.25071)"><g><path d="M 7.671875 0 L 10.242188 0 L 7.777344 -3.160156 C 9.175781 -3.761719 9.925781 -4.964844 9.925781 -6.785156 C 9.925781 -8.769531 8.875 -10.605469 5.777344 -10.605469 L 1.097656 -10.605469 L 1.097656 0 L 3.25 0 L 3.25 -2.722656 L 5.21875 -2.722656 C 5.355469 -2.722656 5.503906 -2.722656 5.625 -2.738281 Z M 3.25 -4.496094 L 3.25 -8.738281 L 5.429688 -8.738281 C 7.097656 -8.738281 7.671875 -7.714844 7.671875 -6.617188 C 7.671875 -5.371094 6.859375 -4.496094 5.144531 -4.496094 Z M 3.25 -4.496094 "/></g></g></g><g fill="#13252f" fill-opacity="1"><g transform="translate(30.750615, 41.25071)"><g><path d="M 8.695312 -3.488281 C 8.695312 -3.625 8.707031 -3.789062 8.707031 -3.957031 C 8.707031 -6.496094 7.25 -8.316406 4.738281 -8.316406 C 2.269531 -8.316406 0.554688 -6.4375 0.554688 -4.089844 C 0.554688 -1.761719 2.269531 0.121094 4.738281 0.121094 C 6.332031 0.121094 7.671875 -0.542969 8.421875 -1.5625 L 7.085938 -2.675781 C 6.632812 -2.0625 5.835938 -1.667969 4.980469 -1.667969 C 3.730469 -1.667969 2.871094 -2.421875 2.648438 -3.488281 Z M 4.738281 -6.648438 C 6.136719 -6.648438 6.632812 -5.761719 6.707031 -4.828125 L 2.664062 -4.828125 C 2.859375 -5.835938 3.640625 -6.648438 4.738281 -6.648438 Z M 4.738281 -6.648438 "/></g></g></g><g fill="#13252f" fill-opacity="1"><g transform="translate(39.999809, 41.25071)"><g><path d="M 3.578125 -6.4375 L 5.867188 -6.4375 L 5.867188 -8.167969 L 3.578125 -8.167969 L 3.578125 -11.339844 L 1.472656 -11.339844 L 1.472656 -8.167969 L 0.316406 -8.167969 L 0.316406 -6.4375 L 1.472656 -6.4375 L 1.472656 -2.453125 C 1.472656 -0.738281 2.570312 0.121094 3.941406 0.121094 C 5.113281 0.121094 5.746094 -0.152344 5.835938 -0.179688 L 5.835938 -1.746094 C 5.550781 -1.714844 5.234375 -1.667969 4.875 -1.667969 C 3.820312 -1.667969 3.578125 -2.089844 3.578125 -3.550781 Z M 3.578125 -6.4375 "/></g></g></g><g fill="#13252f" fill-opacity="1"><g transform="translate(46.271211, 41.25071)"><g><path d="M 4.992188 -8.316406 C 2.527344 -8.316406 0.527344 -6.4375 0.527344 -4.089844 C 0.527344 -1.761719 2.527344 0.121094 4.992188 0.121094 C 7.460938 0.121094 9.460938 -1.761719 9.460938 -4.089844 C 9.460938 -6.4375 7.460938 -8.316406 4.992188 -8.316406 Z M 4.992188 -1.761719 C 3.671875 -1.761719 2.585938 -2.8125 2.585938 -4.089844 C 2.585938 -5.382812 3.671875 -6.4375 4.992188 -6.4375 C 6.332031 -6.4375 7.398438 -5.382812 7.398438 -4.089844 C 7.398438 -2.8125 6.332031 -1.761719 4.992188 -1.761719 Z M 4.992188 -1.761719 "/></g></g></g><g fill="#13252f" fill-opacity="1"><g transform="translate(56.287412, 41.25071)"><g><path d="M 8.664062 -8.167969 L 6.574219 -8.167969 L 6.574219 -2.40625 C 6.089844 -2 5.476562 -1.761719 4.722656 -1.761719 C 3.566406 -1.761719 2.949219 -2.375 2.949219 -3.640625 L 2.949219 -8.167969 L 0.855469 -8.167969 L 0.855469 -3.640625 C 0.855469 -0.992188 1.957031 0.121094 4.347656 0.121094 C 5.1875 0.121094 5.957031 -0.121094 6.574219 -0.542969 L 6.574219 0 L 8.664062 0 Z M 8.664062 -8.167969 "/></g></g></g><g fill="#13252f" fill-opacity="1"><g transform="translate(65.897558, 41.25071)"><g><path d="M 3.054688 -8.167969 L 0.949219 -8.167969 L 0.949219 0 L 3.054688 0 L 3.054688 -3.941406 C 3.054688 -5.007812 3.625 -6.078125 5.128906 -6.078125 C 5.566406 -6.078125 6.136719 -5.957031 6.136719 -5.957031 L 6.136719 -8.226562 C 5.972656 -8.289062 5.777344 -8.316406 5.625 -8.316406 C 4.46875 -8.300781 3.609375 -7.792969 3.054688 -7.023438 Z M 3.054688 -8.167969 "/></g></g></g></svg>